<svg width="32" height="32" viewBox="0 0 32 32" fill="none" xmlns="http://www.w3.org/2000/svg" shape-rendering="crispEdges">
  <!-- Bell / dome -->
  <rect x="13" y="4" width="6" height="1" fill="#00D084"/>
  <rect x="11" y="5" width="10" height="1" fill="#00D084"/>
  <rect x="10" y="6" width="12" height="1" fill="#00D084"/>
  <rect x="9" y="7" width="14" height="1" fill="#00D084"/>
  <rect x="9" y="8" width="14" height="1" fill="#00D084"/>
  <rect x="9" y="9" width="14" height="1" fill="#00D084"/>
  <rect x="9" y="10" width="14" height="1" fill="#00D084"/>
  <rect x="9" y="11" width="14" height="1" fill="#00D084"/>
  <rect x="10" y="12" width="12" height="1" fill="#00D084"/>
  <rect x="10" y="13" width="12" height="1" fill="#00D084"/>
  <!-- Eyes -->
  <rect x="12" y="9" width="2" height="2" fill="#0a0a0a"/>
  <rect x="18" y="9" width="2" height="2" fill="#0a0a0a"/>
  <!-- Fringe / rim -->
  <rect x="9" y="14" width="2" height="1" fill="#00D084"/>
  <rect x="12" y="14" width="2" height="1" fill="#00D084"/>
  <rect x="15" y="14" width="2" height="1" fill="#00D084"/>
  <rect x="18" y="14" width="2" height="1" fill="#00D084"/>
  <rect x="21" y="14" width="2" height="1" fill="#00D084"/>
  <!-- Tentacle 1 (left) -->
  <rect x="10" y="16" width="1" height="2" fill="#00D084"/>
  <rect x="11" y="18" width="1" height="2" fill="#33DAAA"/>
  <rect x="10" y="20" width="1" height="2" fill="#33DAAA"/>
  <rect x="11" y="22" width="1" height="2" fill="#66E4C0"/>
  <rect x="10" y="24" width="1" height="2" fill="#66E4C0"/>
  <!-- Tentacle 2 (center-left) -->
  <rect x="14" y="16" width="1" height="2" fill="#00D084"/>
  <rect x="13" y="18" width="1" height="2" fill="#33DAAA"/>
  <rect x="14" y="20" width="1" height="2" fill="#33DAAA"/>
  <rect x="13" y="22" width="1" height="2" fill="#66E4C0"/>
  <rect x="14" y="24" width="1" height="3" fill="#66E4C0"/>
  <!-- Tentacle 3 (center-right) -->
  <rect x="17" y="16" width="1" height="2" fill="#00D084"/>
  <rect x="18" y="18" width="1" height="2" fill="#33DAAA"/>
  <rect x="17" y="20" width="1" height="2" fill="#33DAAA"/>
  <rect x="18" y="22" width="1" height="2" fill="#66E4C0"/>
  <rect x="17" y="24" width="1" height="3" fill="#66E4C0"/>
  <!-- Tentacle 4 (right) -->
  <rect x="21" y="16" width="1" height="2" fill="#00D084"/>
  <rect x="20" y="18" width="1" height="2" fill="#33DAAA"/>
  <rect x="21" y="20" width="1" height="2" fill="#33DAAA"/>
  <rect x="20" y="22" width="1" height="2" fill="#66E4C0"/>
  <rect x="21" y="24" width="1" height="2" fill="#66E4C0"/>
</svg>
