<svg width="512" height="512" viewBox="0 0 512 512" fill="none" xmlns="http://www.w3.org/2000/svg">
  <!-- Background -->
  <rect width="512" height="512" fill="#0C0C0E"/>
  <!-- Jellyfish (scaled 8x, centered at 256) -->
  <g shape-rendering="crispEdges" transform="translate(128, 100) scale(8)">
    <rect x="13" y="4" width="6" height="1" fill="#00D084"/>
    <rect x="11" y="5" width="10" height="1" fill="#00D084"/>
    <rect x="10" y="6" width="12" height="1" fill="#00D084"/>
    <rect x="9" y="7" width="14" height="1" fill="#00D084"/>
    <rect x="9" y="8" width="14" height="1" fill="#00D084"/>
    <rect x="9" y="9" width="14" height="1" fill="#00D084"/>
    <rect x="9" y="10" width="14" height="1" fill="#00D084"/>
    <rect x="9" y="11" width="14" height="1" fill="#00D084"/>
    <rect x="10" y="12" width="12" height="1" fill="#00D084"/>
    <rect x="10" y="13" width="12" height="1" fill="#00D084"/>
    <rect x="12" y="9" width="2" height="2" fill="#0C0C0E"/>
    <rect x="18" y="9" width="2" height="2" fill="#0C0C0E"/>
    <rect x="9" y="14" width="2" height="1" fill="#00D084"/>
    <rect x="12" y="14" width="2" height="1" fill="#00D084"/>
    <rect x="15" y="14" width="2" height="1" fill="#00D084"/>
    <rect x="18" y="14" width="2" height="1" fill="#00D084"/>
    <rect x="21" y="14" width="2" height="1" fill="#00D084"/>
    <rect x="10" y="16" width="1" height="2" fill="#00D084"/>
    <rect x="11" y="18" width="1" height="2" fill="#33DAAA"/>
    <rect x="10" y="20" width="1" height="2" fill="#33DAAA"/>
    <rect x="11" y="22" width="1" height="2" fill="#66E4C0"/>
    <rect x="10" y="24" width="1" height="2" fill="#66E4C0"/>
    <rect x="14" y="16" width="1" height="2" fill="#00D084"/>
    <rect x="13" y="18" width="1" height="2" fill="#33DAAA"/>
    <rect x="14" y="20" width="1" height="2" fill="#33DAAA"/>
    <rect x="13" y="22" width="1" height="2" fill="#66E4C0"/>
    <rect x="14" y="24" width="1" height="3" fill="#66E4C0"/>
    <rect x="17" y="16" width="1" height="2" fill="#00D084"/>
    <rect x="18" y="18" width="1" height="2" fill="#33DAAA"/>
    <rect x="17" y="20" width="1" height="2" fill="#33DAAA"/>
    <rect x="18" y="22" width="1" height="2" fill="#66E4C0"/>
    <rect x="17" y="24" width="1" height="3" fill="#66E4C0"/>
    <rect x="21" y="16" width="1" height="2" fill="#00D084"/>
    <rect x="20" y="18" width="1" height="2" fill="#33DAAA"/>
    <rect x="21" y="20" width="1" height="2" fill="#33DAAA"/>
    <rect x="20" y="22" width="1" height="2" fill="#66E4C0"/>
    <rect x="21" y="24" width="1" height="2" fill="#66E4C0"/>
  </g>
  <!-- Text -->
  <text x="256" y="450" text-anchor="middle" font-family="system-ui, -apple-system, sans-serif" font-size="48" font-weight="700" fill="#FAFAFA">NeuraMeter</text>
</svg>
